<svg id="Capa_1" enable-background="new 0 0 512 512" height="512" viewBox="0 0 512 512" width="512" xmlns="http://www.w3.org/2000/svg"><g><path d="m217 347.5 96-72c8.249-6.187 7.952-18.727-.68-24.48l-96-64c-9.944-6.632-23.32.508-23.32 12.48v136c0 12.328 14.119 19.413 24 12zm6-119.973 55.039 36.693-55.039 41.28z"/><path d="m432 384.5h-49v-17c0-8.284-6.716-15-15-15s-15 6.716-15 15v17h-273c-8.284 0-15 6.716-15 15s6.716 15 15 15h352c8.284 0 15-6.716 15-15s-6.716-15-15-15z"/><path d="m482 33.5h-452c-16.542 0-30 13.458-30 30v385c0 16.542 13.458 30 30 30h452c16.542 0 30-13.458 30-30 0-17.022 0-366.87 0-385 0-16.542-13.458-30-30-30zm-452 30h452v49h-452zm452 385h-452v-306h452.001c.018 312.561.099 306-.001 306z"/></g></svg>